<svg width="14" height="13" viewBox="0 0 14 13" fill="none" xmlns="http://www.w3.org/2000/svg">
<path d="M5.74312 0.324219C8.54039 0.324219 10.8066 2.59039 10.8066 5.38766C10.8066 6.5968 10.3837 7.70539 9.67734 8.5768L13.1578 12.0573C13.3641 12.2635 13.3641 12.5961 13.1578 12.8023C12.9516 13.0086 12.619 13.0086 12.4127 12.8023L8.93226 9.32187C8.06086 10.0283 6.95226 10.4511 5.74312 10.4511C2.94586 10.4511 0.679685 8.18492 0.679685 5.38766C0.679685 2.59039 2.94843 0.324219 5.74312 0.324219ZM5.74312 9.39922C7.95773 9.39922 9.75469 7.60226 9.75469 5.38766C9.75469 3.17305 7.95773 1.37609 5.74312 1.37609C3.52851 1.37609 1.73156 3.17305 1.73156 5.38766C1.73156 7.60226 3.52851 9.39922 5.74312 9.39922Z" fill="#FBD846"/>
</svg>
