<?xml version="1.0" encoding="UTF-8"?> <svg xmlns="http://www.w3.org/2000/svg" width="28" height="18" viewBox="0 0 28 18" fill="none"><path d="M1.01562 1.83496V0.834961H0.015625V1.83496H1.01562ZM26.0156 1.83496H27.0156V0.834961H26.0156V1.83496ZM26.0156 16.835V17.835H27.0156V16.835H26.0156ZM1.01562 16.835H0.015625V17.835H1.01562V16.835ZM13.5156 11.4778L12.9048 12.2696L13.5156 12.7408L14.1264 12.2696L13.5156 11.4778ZM10.2466 9.19227C10.6412 8.8058 10.6477 8.17267 10.2612 7.77814C9.87476 7.3836 9.24163 7.37707 8.8471 7.76355L10.2466 9.19227ZM18.1604 7.73994C17.7659 7.35346 17.1327 7.35997 16.7463 7.7545C16.3598 8.14902 16.3663 8.78215 16.7608 9.16864L18.1604 7.73994ZM1.01562 2.83496H26.0156V0.834961H1.01562V2.83496ZM25.0156 1.83496V16.835H27.0156V1.83496H25.0156ZM26.0156 15.835H1.01562V17.835H26.0156V15.835ZM2.01562 16.835V1.83496H0.015625V16.835H2.01562ZM0.404822 2.62674L12.9048 12.2696L14.1264 10.686L1.62643 1.04318L0.404822 2.62674ZM14.1264 12.2696L26.6264 2.62674L25.4048 1.04318L12.9048 10.686L14.1264 12.2696ZM1.7154 17.5493L10.2466 9.19227L8.8471 7.76355L0.315849 16.1206L1.7154 17.5493ZM26.7154 16.1206L18.1604 7.73994L16.7608 9.16864L25.3158 17.5493L26.7154 16.1206Z" fill="#99CB38"></path></svg> 