<?xml version="1.0" encoding="UTF-8"?> <svg xmlns="http://www.w3.org/2000/svg" width="28" height="28" viewBox="0 0 28 28" fill="none"><path d="M16.5482 19.7052L17.1191 18.8843L16.4334 18.4074L15.842 18.9972L16.5482 19.7052ZM22.4234 23.7916L23.1296 24.4997L23.9773 23.6543L22.9944 22.9706L22.4234 23.7916ZM21.1055 25.1059L20.3994 24.3978L20.3994 24.3978L21.1055 25.1059ZM17.7494 25.9517L17.4639 26.9101L17.7494 25.9517ZM7.94875 19.993L8.65488 19.2849L7.94875 19.993ZM1.97349 10.2195L2.93143 9.93256L2.93143 9.93255L1.97349 10.2195ZM2.82166 6.87278L2.11554 6.16469H2.11554L2.82166 6.87278ZM4.13963 5.55847L4.95909 4.98535L4.27665 4.00957L3.4335 4.85039L4.13963 5.55847ZM8.23732 11.4175L8.94345 12.1256L9.53811 11.5325L9.05679 10.8443L8.23732 11.4175ZM17.8423 14.8411L16.8447 14.7709V14.7709L17.8423 14.8411ZM21.9934 14.7861L20.9959 14.7159V14.7159L21.9934 14.7861ZM26.8 14.666L27.7976 14.7362V14.7362L26.8 14.666ZM13.6991 23.9587L17.2543 20.4133L15.842 18.9972L12.2868 22.5425L13.6991 23.9587ZM15.9772 20.5262L21.8525 24.6125L22.9944 22.9706L17.1191 18.8843L15.9772 20.5262ZM21.7173 23.0835L20.3994 24.3978L21.8116 25.814L23.1296 24.4997L21.7173 23.0835ZM20.3994 24.3978C19.7815 25.0139 18.8736 25.2432 18.0349 24.9933L17.4639 26.9101C19.0044 27.369 20.6737 26.9487 21.8116 25.814L20.3994 24.3978ZM18.0349 24.9933C14.5693 23.9609 11.4441 22.0664 8.65488 19.2849L7.24263 20.7011C10.2476 23.6978 13.6562 25.7757 17.4639 26.9101L18.0349 24.9933ZM8.65488 19.2849C5.86565 16.5034 3.96638 13.3874 2.93143 9.93256L1.01555 10.5065C2.15343 14.3049 4.23767 17.7045 7.24263 20.7011L8.65488 19.2849ZM2.93143 9.93255C2.68188 9.09957 2.91027 8.19667 3.52779 7.58087L2.11554 6.16469C0.977301 7.29977 0.554336 8.96698 1.01555 10.5065L2.93143 9.93255ZM3.52779 7.58087L4.84575 6.26656L3.4335 4.85039L2.11554 6.16469L3.52779 7.58087ZM3.32016 6.1316L7.41786 11.9906L9.05679 10.8443L4.95909 4.98535L3.32016 6.1316ZM7.5312 10.7094L3.97601 14.2547L5.38826 15.6709L8.94345 12.1256L7.5312 10.7094ZM16.8447 14.7709L16.7977 15.4396L18.7928 15.5799L18.8398 14.9113L16.8447 14.7709ZM12.8101 10.9137C15.072 10.6616 17.0034 12.5153 16.8447 14.7709L18.8398 14.9113C19.0866 11.403 16.085 8.53634 12.5886 8.926L12.8101 10.9137ZM20.9959 14.7159L20.9109 15.9243L22.9059 16.0646L22.9909 14.8562L20.9959 14.7159ZM12.8102 6.88652C17.396 6.37545 21.3181 10.1341 20.9959 14.7159L22.9909 14.8562C23.4013 9.02178 18.4089 4.25018 12.5887 4.89883L12.8102 6.88652ZM25.8025 14.5959L25.6735 16.4293L27.6686 16.5696L27.7976 14.7362L25.8025 14.5959ZM12.81 2.16691C20.0868 1.35593 26.3142 7.32046 25.8025 14.5959L27.7976 14.7362C28.3974 6.20816 21.0998 -0.769338 12.5885 0.179213L12.81 2.16691Z" fill="#99CB38"></path></svg> 